# xmcd
#
# Track frame offsets: 
#        150
#        12319
#        27993
#        42767
#        51601
#        63182
#        77856
#        93555
#        108074
#        123680
#        138049
#        151934
#        166360
#        181639
#        194774
#        208951
#        223929
#        238560
#        252846
#        266922
#
# Disc length: 3753 seconds
#
# Revision: 9
# Processed by: cddbd v1.5.2PL0 Copyright (c) Steve Scherf et al.
# Submitted via: ExactAudioCopy v0.95b3
#
DISCID=220ea714
DTITLE=Glenn Miller - In The Mood [CD9] [222917-321]
DYEAR=2005
DGENRE=Jazz
TTITLE0=Chip Off The Old Black
TTITLE1=The Story Of A Starry Night
TTITLE2=At The President's Birthday Ball
TTITLE3=Angels Of Mercy
TTITLE4=On The Old Assembly Line
TTITLE5=Let's Have Another Cup O'Coffee
TTITLE6=Skylark
TTITLE7=Dear Mom
TTITLE8=When The Roses Bloom Again
TTITLE9=Always In My Heart
TTITLE10=Shhh, It's A Military Secret
TTITLE11=Don't Sit Under The Apple Tree  (With Anyone Else But Me)
TTITLE12=She'll Always Remember
TTITLE13=The Lamplighter's Serenade
TTITLE14=When Johnny Comes Marching Home
TTITLE15=American Patrol
TTITLE16=Soldier, Let Me Read Your Letter
TTITLE17=Sleep Song
TTITLE18=Sweet Eloise
TTITLE19=(I've Got A Gal In)  Kalamazoo
EXTD=Vol 9 of a 10 CD box\n\n(P) 2000 Trumpets Of Jericho Ltd.\n(C) 20
EXTD=00 TIM The International Music Company AG\n\nOder No. 204279\n
EXTT0=
EXTT1=
EXTT2=
EXTT3=
EXTT4=
EXTT5=
EXTT6=
EXTT7=
EXTT8=
EXTT9=
EXTT10=
EXTT11=
EXTT12=
EXTT13=
EXTT14=
EXTT15=
EXTT16=
EXTT17=
EXTT18=
EXTT19=
PLAYORDER=
